<?xml version="1.0" encoding="UTF-8"?>
<svg id="Layer_2" data-name="Layer 2" xmlns="http://www.w3.org/2000/svg" viewBox="0 0 75.59 78.14">
  <defs>
    <style>
      .cls-1 {
        fill: none;
        stroke: #c2c6ca;
        stroke-dasharray: 0 0 12 12;
        stroke-miterlimit: 10;
      }

      .cls-2 {
        fill: #c2c6ca;
        stroke-width: 0px;
      }
    </style>
  </defs>
  <g id="Layer_1-2" data-name="Layer 1">
    <g>
      <g>
        <path class="cls-1" d="M69.71,72.91c-2.78-16.43-12.2-31.19-24.89-38.48-5.56-3.2-11.65-5.04-17.01-8.69-5.36-3.65-10.13-9.81-10.32-17.17"/>
        <polygon class="cls-2" points="63.54 72.92 75.59 71.31 70.37 78.14 63.54 72.92"/>
      </g>
      <g>
        <path class="cls-2" d="M.66,7.02c.32-.35.75-.61,1.27-.77.6-.19,1.16-.18,1.67.03.51.2.9.57,1.18,1.11l-.68.21c-.22-.35-.5-.59-.85-.71-.35-.13-.74-.12-1.16,0-.37.12-.68.31-.91.58-.23.27-.37.59-.43.96-.05.37-.02.77.11,1.19.13.42.32.77.57,1.05.25.28.55.47.89.56.34.1.7.09,1.07-.03.42-.13.74-.34.96-.64.22-.3.32-.65.3-1.07l.68-.21c.07.6-.05,1.12-.35,1.57s-.76.77-1.37.96c-.52.16-1.01.18-1.48.07-.47-.11-.87-.34-1.21-.7-.34-.35-.6-.81-.77-1.36C0,9.29-.04,8.77.04,8.28c.08-.49.29-.91.61-1.26Z"/>
        <path class="cls-2" d="M5.63,5.18l1.67,5.47-.64.2-1.67-5.47.64-.2Z"/>
        <path class="cls-2" d="M7.34,5.04c.04.12.03.23-.03.33-.06.1-.14.17-.26.21-.12.04-.23.03-.33-.03-.1-.05-.17-.14-.21-.26-.04-.12-.03-.23.03-.33.06-.1.14-.17.26-.21.12-.04.23-.03.33.03.1.05.17.14.21.26ZM7.59,6.2l1.22,3.98-.64.2-1.22-3.98.64-.2Z"/>
        <path class="cls-2" d="M11.5,9.41c-.39.12-.75.14-1.09.05-.34-.08-.64-.25-.9-.52-.26-.26-.45-.59-.57-.99-.12-.4-.15-.78-.08-1.14.07-.36.23-.67.47-.93.24-.26.56-.45.95-.57.47-.14.89-.14,1.27.02.38.16.68.44.89.85l-.65.2c-.14-.24-.33-.4-.58-.49-.24-.09-.51-.09-.79,0-.38.12-.65.35-.8.69-.15.34-.16.73-.03,1.16.13.44.36.76.68.96s.67.24,1.05.13c.29-.09.51-.24.66-.45.15-.21.22-.46.19-.74l.64-.2c.05.47-.04.88-.27,1.22-.23.35-.58.59-1.06.74Z"/>
        <path class="cls-2" d="M12.95,2.94l1.11,3.62,1.37-2.76.76-.23-1.03,2.1,2.36,1.85-.77.24-1.9-1.48-.54,1.08.32,1.05-.64.2-1.67-5.46.64-.2Z"/>
        <path class="cls-2" d="M25.31,2.62l.7,2.3-.64.2-.69-2.26c-.12-.39-.29-.65-.52-.81s-.49-.18-.79-.09c-.33.1-.56.3-.68.59-.12.29-.12.64,0,1.05l.65,2.13-.64.2-.69-2.26c-.12-.39-.29-.65-.52-.81-.23-.15-.5-.18-.8-.09-.32.1-.54.3-.66.61-.11.3-.11.66.01,1.06l.64,2.1-.64.2-1.22-3.98.55-.17.25.52c.16-.48.49-.8.98-.95.29-.09.56-.1.82-.04.26.06.48.2.67.41.13-.59.52-.99,1.15-1.18.45-.14.85-.11,1.22.09s.64.59.82,1.18Z"/>
        <path class="cls-2" d="M26.45.66c.24-.26.54-.44.91-.55.36-.11.71-.14,1.04-.07.33.07.62.22.86.45.25.24.44.55.57.93.02.06.04.15.07.28l-3.09.94.02.06c.13.39.34.66.64.83.3.16.64.19,1.01.08.29-.09.51-.23.66-.44s.23-.44.22-.72l.65-.2c.05.43-.05.82-.28,1.17-.23.35-.58.6-1.03.74-.4.12-.77.14-1.12.06-.35-.08-.65-.25-.91-.51-.26-.26-.45-.59-.57-.99-.12-.41-.15-.79-.09-1.14.07-.36.22-.66.45-.92ZM28.46.69c-.28-.12-.59-.13-.93-.02-.3.09-.54.27-.71.54-.17.27-.22.57-.15.89l2.41-.73c-.13-.33-.34-.55-.62-.67Z"/>
      </g>
    </g>
  </g>
</svg>