<?xml version="1.0" encoding="utf-8"?>
<!-- Generator: Adobe Illustrator 28.3.0, SVG Export Plug-In . SVG Version: 6.00 Build 0)  -->
<svg version="1.1" id="Layer_2_00000127004937167570461340000005449299026671655870_"
	 xmlns="http://www.w3.org/2000/svg" xmlns:xlink="http://www.w3.org/1999/xlink" x="0px" y="0px" viewBox="0 0 75.6 78.1"
	 style="enable-background:new 0 0 75.6 78.1;" xml:space="preserve">
<style type="text/css">
	.st0{fill:none;stroke:#C2C6CA;stroke-linecap:round;stroke-linejoin:round;stroke-miterlimit:10;stroke-dasharray:0,0,12,12;}
	.st1{fill:#C2C6CA;stroke:#C2C6CA;stroke-linecap:round;stroke-linejoin:round;stroke-miterlimit:10;}
	.st2{fill:#C2C6CA;}
</style>
<path class="st0" d="M69.3,72.4c-2.8-16.3-12.1-30.9-24.7-38.2c-5.5-3.2-11.6-5-16.9-8.6s-10-9.7-10.2-17"/>
<polygon class="st1" points="63.2,72.4 75.1,70.8 69.9,77.6 "/>
<g>
	<path class="st2" d="M1.9,10.9c0-0.3,0.1-0.5,0.3-0.7C2.3,10,2.5,9.8,2.8,9.7c0.4-0.1,0.7-0.2,1-0.1c0.3,0.1,0.6,0.3,0.8,0.6
		l-0.9,0.4c-0.2-0.2-0.4-0.2-0.6-0.1c-0.2,0.1-0.3,0.2-0.3,0.3c0,0.2,0,0.4,0.1,0.6c0.1,0.2,0.2,0.4,0.4,0.5c0.1,0.1,0.3,0.1,0.5,0
		C3.9,11.8,4,11.6,4,11.4L5,11c0.1,0.4,0,0.7-0.1,1c-0.2,0.3-0.4,0.5-0.8,0.7c-0.3,0.1-0.6,0.2-0.8,0.1c-0.3,0-0.5-0.1-0.7-0.3
		C2.3,12.3,2.1,12,2,11.7C1.9,11.5,1.8,11.2,1.9,10.9z"/>
	<path class="st2" d="M5.2,7.7l1.6,3.8l-0.9,0.4L4.3,8L5.2,7.7z"/>
	<path class="st2" d="M6.1,7.9C6,7.9,5.9,7.8,5.8,7.6c-0.1-0.1-0.1-0.3,0-0.4S5.9,7,6.1,6.9c0.1-0.1,0.3-0.1,0.4,0
		c0.1,0,0.2,0.1,0.3,0.3c0.1,0.1,0.1,0.3,0,0.4C6.7,7.7,6.6,7.8,6.5,7.9C6.3,7.9,6.2,7.9,6.1,7.9z M7,8l1.2,2.8l-0.9,0.4L6.2,8.4
		L7,8z"/>
	<path class="st2" d="M8,8.4c0-0.3,0.1-0.5,0.3-0.7S8.7,7.3,9,7.2C9.3,7,9.6,7,9.9,7.1c0.3,0.1,0.6,0.3,0.8,0.6L9.8,8.1
		C9.6,7.9,9.4,7.8,9.2,7.9S8.9,8.1,8.9,8.3s0,0.4,0.1,0.6c0.1,0.2,0.2,0.4,0.4,0.5c0.1,0.1,0.3,0.1,0.5,0s0.3-0.3,0.3-0.5L11,8.5
		c0.1,0.4,0,0.7-0.1,1c-0.2,0.3-0.4,0.5-0.8,0.7c-0.3,0.1-0.6,0.2-0.8,0.1c-0.3,0-0.5-0.1-0.7-0.3S8.2,9.5,8.1,9.2
		C8,8.9,7.9,8.6,8,8.4z"/>
	<path class="st2" d="M13.7,8.6l-1.4-0.8L12.8,9l-0.9,0.4l-1.6-3.8l0.9-0.4l0.9,2.1l0.4-1.5l1.1-0.4L13,7.2l1.8,0.9L13.7,8.6z"/>
	<path class="st2" d="M19.6,3.1c0.3,0.1,0.5,0.4,0.7,0.8L21,5.6L20.1,6l-0.6-1.5c-0.1-0.2-0.2-0.3-0.3-0.4C19,4,18.8,4,18.7,4
		c-0.2,0.1-0.3,0.2-0.3,0.3c-0.1,0.1,0,0.3,0,0.5L19,6.4l-0.9,0.4l-0.6-1.5c-0.1-0.2-0.2-0.3-0.3-0.4c-0.1-0.1-0.3-0.1-0.5,0
		s-0.3,0.2-0.3,0.3c-0.1,0.1,0,0.3,0,0.5L17,7.2l-0.9,0.4L15,4.7l0.9-0.4L16,4.7c0-0.2,0.1-0.3,0.2-0.4C16.4,4.1,16.5,4,16.7,4
		c0.2-0.1,0.4-0.1,0.6-0.1s0.4,0.1,0.6,0.2c0-0.2,0.1-0.4,0.2-0.5c0.1-0.2,0.3-0.3,0.5-0.4C19,3,19.3,3,19.6,3.1z"/>
	<path class="st2" d="M23.7,3l-2,0.8C21.8,4,22,4.1,22.1,4.2s0.3,0,0.4,0c0.2-0.1,0.3-0.2,0.3-0.5l0.9-0.4c0,0.2,0,0.4,0,0.6
		c-0.1,0.2-0.2,0.4-0.3,0.5c-0.2,0.2-0.3,0.3-0.6,0.4C22.6,5,22.3,5,22,5s-0.5-0.1-0.7-0.3c-0.2-0.2-0.4-0.4-0.5-0.7
		s-0.2-0.6-0.1-0.8s0.1-0.5,0.3-0.7c0.2-0.2,0.4-0.4,0.7-0.5c0.3-0.1,0.5-0.2,0.8-0.1c0.3,0,0.5,0.1,0.7,0.3s0.4,0.4,0.5,0.7
		C23.7,2.8,23.7,2.9,23.7,3z M22.7,2.9c-0.1-0.1-0.2-0.2-0.3-0.3c-0.1,0-0.3,0-0.4,0c-0.1,0.1-0.3,0.2-0.3,0.3
		c-0.1,0.1-0.1,0.3,0,0.4L22.7,2.9z"/>
</g>
</svg>
