<?xml version="1.0" encoding="utf-8"?>
<!-- Generator: Adobe Illustrator 28.0.0, SVG Export Plug-In . SVG Version: 6.00 Build 0)  -->
<svg version="1.1" id="Layer_1" xmlns="http://www.w3.org/2000/svg" xmlns:xlink="http://www.w3.org/1999/xlink" x="0px" y="0px"
	 viewBox="0 0 324 194.4" style="enable-background:new 0 0 324 194.4;" xml:space="preserve">
<style type="text/css">
	.st0{fill:#F9FDEE;}
	.st1{fill:#B2D7C1;}
	.st2{fill:none;stroke:#B2D7C1;stroke-width:2;stroke-linecap:round;stroke-linejoin:round;stroke-miterlimit:10;}
	.st3{fill:#F8D4D8;}
	.st4{fill:none;stroke:#FFFFFF;stroke-width:2;stroke-linecap:round;stroke-linejoin:round;stroke-miterlimit:10;}
	.st5{fill:none;stroke:#8C9D9C;stroke-width:2;stroke-linecap:round;stroke-linejoin:round;stroke-miterlimit:10;}
	.st6{fill:none;stroke:#8C9D9B;stroke-width:2;stroke-linecap:round;stroke-linejoin:round;stroke-miterlimit:10;}
	.st7{fill:#FEEEF0;}
	.st8{fill:#FFFFFF;}
</style>
<rect x="-1" y="0" class="st0" width="325.9" height="194.4"/>
<g id="Layer_2">
	<path class="st1" d="M324,105.9c-8.8-1.2-22-4.1-35.6-12c-27.8-16.2-25.1-34.6-48-50.7C216.9,26.8,202.7,38,158,23.7
		c-22.9-7.3-40.2-17-51-23.7c6.5,0,217,0,217,0L324,105.9z"/>
	<path class="st1" d="M0,194.4V71.6C4.6,73,11.4,75.6,18,81c17.2,14.2,12.1,30.1,28.8,46.3c8.4,8.1,17.5,11.7,29.7,16.6
		c15.9,6.3,24.7,6.2,34.2,8.8c13.3,3.7,30.9,13.6,48.6,41.7L0,194.4z"/>
</g>
<g id="Layer_7">
	<polyline class="st2" points="119.8,10.1 123.7,7.8 123.4,12.3 	"/>
	<polyline class="st2" points="27.9,87.7 23.4,88 25.7,84.1 	"/>
	<polyline class="st2" points="46.3,122.9 41.9,124.2 43.3,119.9 	"/>
	<polyline class="st2" points="93.1,146.5 89.7,149.5 89.1,145.1 	"/>
	<polyline class="st2" points="141.6,168.7 137.3,170.2 138.4,165.8 	"/>
	<polyline class="st2" points="169.7,29.1 172.9,25.9 173.8,30.3 	"/>
	<polyline class="st2" points="219.1,36.8 222.3,33.6 223.2,38 	"/>
	<polyline class="st2" points="257,64.6 261.6,64.5 259.1,68.3 	"/>
	<polyline class="st2" points="296.3,100.8 300.1,98.2 300.1,102.8 	"/>
</g>
<g id="Layer_3">
	<path class="st3" d="M324,79.1c-5,0.3-13.2,0-20.1-4.8c-15.1-10.7-5.6-30.3-20-43.8c-11.6-10.9-24.4-4.4-42.3-19.8
		c-4.7-4-7.9-8-9.9-10.7C250.6,0,324,0,324,0L324,79.1z"/>
	<path class="st3" d="M215.4,194.4c-45-19.9-81.8-25.5-107.6-26.8c-25.8-1.3-52.9,1-78.8-16.4c-14.7-9.8-23.7-22.4-29-31.5
		c0,17.2,0,74.7,0,74.7H215.4z"/>
</g>
<g id="Layer_4">
	<path class="st4" d="M114.2-1.2c4.2,2.2,10.5,5.2,18.5,7.5c17.3,4.8,31.3,3,37.9,2.4c5.1-0.4,39.1-3.5,63.2,7.8
		c36.2,16.8,34.2,58.2,76.8,73.7c5.5,2,10.3,3,13.3,3.5"/>
	<path class="st4" d="M146.3,194.4c-2.3-2.6-6.3-6.7-11.8-10.6c-31.9-22.7-59.7-1.4-83.1-19.2c-19-14.5-14.3-38.9-36.8-47.2
		C8.7,115.2,3.3,115,0,115.1"/>
	<path class="st5" d="M222.9,51.9c-6.5,0.9-16,1.1-25.7-3.1c-11.1-4.8-10.8-10.3-20.5-13.9c-13.9-5.1-20.1,4.2-36-0.9
		c-9.8-3.1-15.8-9.4-17.9-11.7c-7.7-8.6-9.5-18.2-10.1-22.3"/>
	<path class="st5" d="M131.3,194.4c-0.8-5.6-2.5-13.6-6.2-22.6c-2.8-6.8-7-17.1-16.2-26c-12.1-11.7-26.3-14.9-31.2-15.9
		c-20.3-4.2-28.2,4-51.6,1.1c-11.4-1.4-20.4-4.7-26.1-7.2"/>
	<path class="st6" d="M310.5,194.4c0,0-18.5-31.3-33.1-42.6c-14.6-11.3-21.4-11.5-21.4-11.5c0.9-2.7,2.6-8.9,0.9-16.3
		c-2.3-10.2-9.3-15.9-11.4-17.4c-0.7,3.1-2.2,10.9,1.1,19.9c3.1,8.4,10,13.1,9.4,13.8c-0.8,0.9-9.7-9.4-22.7-12.4
		c-8.4-1.9-16.1-0.2-21.9,1.8c4.6,3.2,12.9,8.1,24.3,10.2c8.3,1.5,15.4,1.1,20.3,0.4"/>
	<path class="st6" d="M294.7,124.6c-2.7,0.9-9,3.4-14.3,9.8c-5,6-6.5,12.3-6.9,15.2c2.7-0.8,8-2.7,12.7-7.5
		C293,135.4,294.4,127.3,294.7,124.6z"/>
	<path class="st6" d="M244.3,164.6c1.5-2.4,5.4-8,12.8-11.7c7-3.5,13.5-3.5,16.4-3.3c-1.4,2.5-4.5,7.1-10.2,10.7
		C255.2,165.4,247,164.9,244.3,164.6z"/>
	<path class="st6" d="M313.9,143.1c-2.7,0.9-9,3.4-14.3,9.8c-5,6-6.5,12.3-6.9,15.2c2.7-0.8,8-2.7,12.7-7.5
		C312.2,153.9,313.6,145.8,313.9,143.1z"/>
	<path class="st6" d="M263.5,183.1c1.5-2.4,5.4-8,12.8-11.7c7-3.5,13.5-3.5,16.4-3.3c-1.4,2.5-4.5,7.1-10.2,10.7
		C274.4,183.9,266.2,183.4,263.5,183.1z"/>
	<path class="st6" d="M-1,94.5C0.2,88,1.6,82.7,2.8,78.8c4.6-15.1,8.8-19.5,11.2-21.7c1.6-1.4,1.8-1.3,3.3-2.6
		c6.8-5.7,9.6-13.7,10.8-20.7c-1.6,0.5-7.4,2.7-11.3,9c-3.9,6.3-3.1,12.6-2.9,14.3"/>
	<path class="st6" d="M37.3,55.4c-2.2-0.8-6.3-1.9-11.3-1.4c-5.7,0.5-9.8,2.7-11.8,4c2.2,0.9,7.5,2.7,14.1,1.3
		C32.4,58.4,35.4,56.6,37.3,55.4z"/>
	<path class="st6" d="M1.6,37.3c2,1.3,5.3,3.9,7.9,8.2c3,4.9,3.7,9.5,3.9,11.9c-2-1.2-6.6-4.4-9.5-10.5C2,43.1,1.6,39.5,1.6,37.3z"
		/>
	<path class="st6" d="M28.8,70.4c-2.2-0.8-6.3-1.9-11.3-1.4c-5.7,0.5-9.8,2.7-11.8,4c2.2,0.9,7.5,2.7,14.1,1.3
		C23.9,73.5,27,71.7,28.8,70.4z"/>
	<path class="st6" d="M-6.9,52.4c2,1.3,5.3,3.9,7.9,8.2c3,4.9,3.7,9.5,3.9,11.9C2.8,71.2-1.8,68-4.6,62C-6.4,58.1-6.8,54.6-6.9,52.4
		z"/>
</g>
<g id="Layer_5">
	<circle class="st7" cx="301.8" cy="21.1" r="9.9"/>
	<circle class="st7" cx="285.8" cy="14" r="4.8"/>
</g>
<g id="Layer_6">
	<circle class="st8" cx="11.4" cy="170.9" r="1.3"/>
	<circle class="st8" cx="19.6" cy="170.8" r="1.3"/>
	<circle class="st8" cx="27.9" cy="170.8" r="1.3"/>
	<circle class="st8" cx="36.3" cy="170.9" r="1.3"/>
	<circle class="st8" cx="45.1" cy="170.9" r="1.3"/>
	<circle class="st8" cx="11.4" cy="177.7" r="1.3"/>
	<circle class="st8" cx="19.6" cy="177.6" r="1.3"/>
	<circle class="st8" cx="27.9" cy="177.6" r="1.3"/>
	<circle class="st8" cx="36.3" cy="177.7" r="1.3"/>
	<circle class="st8" cx="11.4" cy="184.6" r="1.3"/>
	<circle class="st8" cx="19.6" cy="184.5" r="1.3"/>
	<circle class="st8" cx="27.9" cy="184.5" r="1.3"/>
	<circle class="st1" cx="307.1" cy="113.1" r="1.3"/>
	<circle class="st1" cx="315.4" cy="113" r="1.3"/>
	<circle class="st1" cx="323.7" cy="113" r="1.3"/>
	<circle class="st1" cx="307.1" cy="119.9" r="1.3"/>
	<circle class="st1" cx="315.4" cy="119.8" r="1.3"/>
	<circle class="st1" cx="323.7" cy="119.8" r="1.3"/>
	<circle class="st1" cx="307.1" cy="126.8" r="1.3"/>
	<circle class="st1" cx="315.4" cy="126.7" r="1.3"/>
	<circle class="st1" cx="323.7" cy="126.7" r="1.3"/>
</g>
</svg>
