<?xml version="1.0" encoding="utf-8"?>
<!-- Generator: Adobe Illustrator 28.0.0, SVG Export Plug-In . SVG Version: 6.00 Build 0)  -->
<svg version="1.1" xmlns="http://www.w3.org/2000/svg" xmlns:xlink="http://www.w3.org/1999/xlink" x="0px" y="0px"
	 viewBox="0 0 1800 1080" style="enable-background:new 0 0 1800 1080;" xml:space="preserve">
<style type="text/css">
	.st0{fill:#F9FDEE;}
	.st1{fill:#B2D7C1;}
	.st2{fill:#F8D4D8;}
	.st3{fill:none;stroke:#B2D7C1;stroke-width:6;stroke-linecap:round;stroke-linejoin:round;stroke-miterlimit:10;}
	.st4{fill:none;stroke:#FFFFFF;stroke-width:6;stroke-linecap:round;stroke-linejoin:round;stroke-miterlimit:10;}
	.st5{fill:none;stroke:#8C9D9C;stroke-width:6;stroke-linecap:round;stroke-linejoin:round;stroke-miterlimit:10;}
	.st6{fill:none;stroke:#8C9D9B;stroke-width:6;stroke-linecap:round;stroke-linejoin:round;stroke-miterlimit:10;}
	.st7{fill:#FEEEF0;}
	.st8{fill:#FFFFFF;}
</style>
<g id="bg">
	<rect class="st0" width="1800" height="1080"/>
	<g id="green_09">
		<ellipse class="st1" cx="1767.8" cy="600.2" rx="6.6" ry="6.3"/>
	</g>
</g>
<g id="top_green">
	<path class="st1" d="M1801.1,491.3c-41.2-5.6-102.9-19.2-166.5-56.1c-130-75.8-117.4-161.8-224.5-237.1
		c-109.9-76.7-176.3-24.3-385.3-91.2C917.8,72.7,836.9,27.4,786.4-3.9c30.4,0,1014.7,0,1014.7,0L1801.1,491.3L1801.1,491.3z"/>
</g>
<g id="left_green_00000080190405538465556980000003779220365185290890_">
	<path class="st1" d="M0,1080V505.8c21.5,6.5,53.3,18.7,84.2,44c80.4,66.4,56.6,140.8,134.7,216.5c39.3,37.9,81.8,54.7,138.9,77.6
		c74.4,29.5,115.5,29,159.9,41.2c62.2,17.3,144.5,63.6,227.3,195L0,1080z"/>
</g>
<g id="top_pink">
	<path class="st2" d="M1801.1,365.9c-23.4,1.4-61.7,0-94-22.4c-70.6-50-26.2-141.7-93.5-204.8c-54.2-51-114.1-20.6-197.8-92.6
		c-22-18.7-36.9-37.4-46.3-50c88.4,0,431.6,0,431.6,0L1801.1,365.9L1801.1,365.9z"/>
</g>
<g id="bottom_pink_00000097488102292871209960000009543870461326331308_">
	<path class="st2" d="M1007.3,1080.5c-210.4-93.1-382.5-119.2-503.2-125.3c-120.6-6.1-247.4,4.7-368.5-76.7
		C66.9,832.6,24.8,773.7,0,731.2c0,80.4,0,349.3,0,349.3H1007.3z"/>
</g>
<g id="bottom_grass_01">
	<polyline class="st3" points="125.3,568.6 104.2,570 115,551.7 	"/>
</g>
<g id="bottom_grass_02">
	<polyline class="st3" points="211.3,733.2 190.7,739.2 197.3,719.1 	"/>
</g>
<g id="bottom_grass_03_00000005973425738530068880000009524620850119469228_">
	<polyline class="st3" points="430.1,853.8 414.3,867.8 411.4,847.3 	"/>
</g>
<g id="bottom_grass_04">
	<polyline class="st3" points="656.9,947.3 636.8,954.3 642,933.8 	"/>
</g>
<g id="top_grass_01">
	<polyline class="st3" points="849.7,49.2 867.9,38.4 866.5,59.4 	"/>
</g>
<g id="top_grass_02">
	<polyline class="st3" points="1083,138 1098,123 1102.2,143.6 	"/>
</g>
<g id="top_grass_03">
	<polyline class="st3" points="1314,174 1329,159.1 1333.2,179.6 	"/>
</g>
<g id="top_grass_04">
	<polyline class="st3" points="1491.2,304 1512.8,303.5 1501.1,321.3 	"/>
</g>
<g id="top_grass_05">
	<polyline class="st3" points="1675,473.3 1692.8,461.1 1692.8,482.6 	"/>
</g>
<g id="top_white_line">
	<path class="st4" d="M819.6-3.9c19.6,10.3,49.1,24.3,86.5,35.1c80.9,22.4,146.4,14,177.2,11.2c23.8-1.9,182.8-16.4,295.5,36.5
		c169.3,78.6,159.9,272.2,359.1,344.6c25.7,9.4,48.2,14,62.2,16.4"/>
</g>
<g id="bottom_white_line">
	<path class="st4" d="M684.1,1083c-10.8-12.2-29.5-31.3-55.2-49.6c-149.2-106.1-279.2-6.5-388.6-89.8
		c-88.8-67.7-66.8-181.8-172-220.6C40.7,712.7,15.4,711.7,0,712.2"/>
</g>
<g id="top_dark_green_line">
	<path class="st5" d="M1327.9,244.4c-30.4,4.2-74.8,5.1-120.2-14.5c-51.9-22.4-50.5-48.2-95.9-65c-65-23.8-94,19.6-168.3-4.2
		c-45.8-14.5-73.9-44-83.7-54.7c-36-40.2-44.4-85.1-47.2-104.3"/>
</g>
<g id="bottom_dark_green_line">
	<path class="st5" d="M614,1081.2c-3.7-26.2-11.7-63.6-29-105.7c-13.1-31.8-32.7-80-75.8-121.6c-56.6-54.7-123-69.7-145.9-74.4
		c-94.9-19.6-131.9,18.7-241.3,5.1c-53.3-6.5-95.4-22-122-33.7"/>
</g>
<g id="right_stem_w_x2F__leaves">
	<path class="st6" d="M1725.8,1087.8c0,0-86.5-146.4-154.8-199.2s-100.1-53.8-100.1-53.8c4.2-12.6,12.2-41.6,4.2-76.2
		c-10.8-47.7-43.5-74.4-53.3-81.4c-3.3,14.5-10.3,51,5.1,93.1c14.5,39.3,46.8,61.3,44,64.5c-3.7,4.2-45.4-44-106.1-58
		c-39.3-8.9-75.3-0.9-102.4,8.4c21.5,15,60.3,37.9,113.6,47.7c38.8,7,72,5.1,94.9,1.9"/>
</g>
<g id="right_leaf_01">
	<path class="st6" d="M1651.9,761.4c-12.6,4.2-42.1,15.9-66.9,45.8c-23.4,28.1-30.4,57.5-32.3,71.1c12.6-3.7,37.4-12.6,59.4-35.1
		C1643.9,811.9,1650.5,774,1651.9,761.4z"/>
</g>
<g id="left_leaf_01">
	<path class="st6" d="M1415.7,948.5c7-11.2,25.3-37.4,59.9-54.7c32.7-16.4,63.1-16.4,76.7-15.4c-6.5,11.7-21,33.2-47.7,50
		C1466.7,952.2,1428.8,949.9,1415.7,948.5z"/>
</g>
<g id="right_leaf_02">
	<path class="st6" d="M1741.7,847.9c-12.6,4.2-42.1,15.9-66.9,45.8c-23.4,28.1-30.4,57.5-32.3,71.1c12.6-3.7,37.4-12.6,59.4-35.1
		C1733.7,898.4,1740.3,860.5,1741.7,847.9z"/>
</g>
<g id="left_leaf_02">
	<path class="st6" d="M1506,1035c7-11.2,25.3-37.4,59.9-54.7c32.7-16.4,63.1-16.4,76.7-15.4c-6.5,11.7-21,33.2-47.7,50
		C1556.9,1038.7,1518.6,1036.4,1506,1035z"/>
</g>
<g id="left_stem_w_x2F__leaf">
	<path class="st6" d="M-13.5,540.2c19.8-23.7,37.3-42.4,51-55.9c52.9-51.2,80.2-59.9,94.9-63.6c9.7-2,10.4-1.3,19.4-3
		c40.5-8,70.1-34.2,91.2-60c-7.8-1.8-36.1-5.8-66.5,11.2c-30.3,17-41,44.5-44.1,51.8"/>
</g>
<g id="right_leaf_01_00000133504306277641419780000002626875923506667140_">
	<path class="st6" d="M231.7,466.8c-6.9-8.4-21.5-22-43.1-31.1c-24.5-10.7-46.2-10.9-57.3-10.4c6.9,8.4,24.8,28.1,54.8,37.2
		C204.9,468.2,221,467.5,231.7,466.8z"/>
</g>
<g id="left_leaf_01_00000057123736987371883580000016852814541691200147_">
	<path class="st6" d="M126.7,312.1c5.4,9.9,12.9,27.9,13.5,51.4c1.4,26.8-6.3,47.4-11,57.6c-5.6-9.4-17.1-32.9-14.9-64.3
		C115,336.7,121.5,321.2,126.7,312.1z"/>
</g>
<g id="right_leaf_02_00000153694524613809105230000004304082948508022691_">
	<path class="st6" d="M163.2,509c-6.9-8.4-21.5-22-43.1-31.1c-24.5-10.7-46.2-10.9-57.3-10.4c6.9,8.4,24.8,28.1,54.8,37.2
		C135.8,510.8,152.8,510.3,163.2,509z"/>
</g>
<g id="left_leaf_02_00000178186862003728097880000004793673705130240649_">
	<path class="st6" d="M57.6,354.6c5.4,9.9,12.9,27.9,13.5,51.4c1.4,26.8-6.3,47.4-11,57.6c-5.3-10.3-16.8-33.7-14.9-64.3
		C47,379.1,52.9,363.8,57.6,354.6z"/>
</g>
<g id="big_bubble">
	<circle class="st7" cx="1665.1" cy="78" r="46.3"/>
</g>
<g id="small_bubble">
	<circle class="st7" cx="1590.3" cy="44.8" r="22.4"/>
</g>
<g id="circle_01">
	<ellipse class="st8" cx="46.2" cy="975.2" rx="6.6" ry="6.3"/>
</g>
<g id="circle_02">
	<ellipse class="st8" cx="87.6" cy="974.7" rx="6.6" ry="6.3"/>
</g>
<g id="circle_03">
	<ellipse class="st8" cx="129.6" cy="974.7" rx="6.6" ry="6.3"/>
</g>
<g id="circle_04">
	<ellipse class="st8" cx="171.9" cy="975.2" rx="6.6" ry="6.3"/>
</g>
<g id="circle_05">
	<ellipse class="st8" cx="216.4" cy="975.2" rx="6.6" ry="6.3"/>
</g>
<g id="circle_06">
	<ellipse class="st8" cx="46.2" cy="1008.2" rx="6.6" ry="6.3"/>
</g>
<g id="circle_07">
	<ellipse class="st8" cx="87.6" cy="1007.8" rx="6.6" ry="6.3"/>
</g>
<g id="circle_08">
	<ellipse class="st8" cx="129.6" cy="1007.8" rx="6.6" ry="6.3"/>
</g>
<g id="circle_09">
	<ellipse class="st8" cx="171.9" cy="1008.2" rx="6.6" ry="6.3"/>
</g>
<g id="circle_10">
	<ellipse class="st8" cx="46.2" cy="1041.8" rx="6.6" ry="6.3"/>
</g>
<g id="circle_11">
	<ellipse class="st8" cx="87.6" cy="1041.3" rx="6.6" ry="6.3"/>
</g>
<g id="circle_12">
	<ellipse class="st8" cx="129.6" cy="1041.3" rx="6.6" ry="6.3"/>
</g>
<g id="green_01">
	<ellipse class="st1" cx="1683.9" cy="534.2" rx="6.6" ry="6.3"/>
</g>
<g id="green_02">
	<ellipse class="st1" cx="1725.9" cy="533.7" rx="6.6" ry="6.3"/>
</g>
<g id="green_03">
	<ellipse class="st1" cx="1767.8" cy="533.7" rx="6.6" ry="6.3"/>
</g>
<g id="green_04">
	<ellipse class="st1" cx="1683.9" cy="567.2" rx="6.6" ry="6.3"/>
</g>
<g id="green_05">
	<ellipse class="st1" cx="1725.9" cy="566.7" rx="6.6" ry="6.3"/>
</g>
<g id="green_06">
	<ellipse class="st1" cx="1767.8" cy="566.7" rx="6.6" ry="6.3"/>
</g>
<g id="green_07">
	<ellipse class="st1" cx="1683.9" cy="600.8" rx="6.6" ry="6.3"/>
</g>
<g id="green_08">
	<ellipse class="st1" cx="1725.9" cy="600.2" rx="6.6" ry="6.3"/>
</g>
</svg>
